<svg width="25" height="25" viewBox="0 0 25 25" fill="none" xmlns="http://www.w3.org/2000/svg">
<g id="fluent:ticket-diagonal-16-filled">
<path id="Vector" d="M15.5875 2.11265C15.172 1.73171 14.6254 1.52589 14.0618 1.53811C13.4982 1.55034 12.9611 1.77967 12.5625 2.17828L2.22501 12.5173C2.02186 12.7205 1.86071 12.9616 1.75076 13.227C1.64082 13.4925 1.58423 13.7769 1.58423 14.0642C1.58423 14.3515 1.64082 14.636 1.75076 14.9014C1.86071 15.1668 2.02186 15.408 2.22501 15.6111L3.67189 17.0564C4.21407 17.6001 4.99376 17.4689 5.45314 17.1627C5.7837 16.9429 6.18013 16.8444 6.57509 16.8838C6.97005 16.9232 7.33921 17.0981 7.61988 17.3787C7.90055 17.6594 8.07542 18.0285 8.11481 18.4235C8.15419 18.8185 8.05566 19.2149 7.83595 19.5455C7.53126 20.0048 7.40001 20.7861 7.9422 21.3283L9.35626 22.7408C9.5633 22.948 9.80986 23.1116 10.0813 23.2217C10.3528 23.3319 10.6436 23.3864 10.9365 23.382C11.2294 23.3777 11.5185 23.3145 11.7865 23.1963C12.0546 23.0781 12.2961 22.9072 12.4969 22.6939L22.8063 11.7376C23.0047 11.5268 23.1593 11.2786 23.2611 11.0075C23.3629 10.7364 23.4099 10.4477 23.3993 10.1583C23.3887 9.86896 23.3207 9.58455 23.1993 9.32163C23.078 9.05871 22.9056 8.8225 22.6922 8.62671L21.3078 7.3564C21.1554 7.22043 20.9734 7.12182 20.7762 7.06839C20.579 7.01496 20.3721 7.00818 20.1719 7.04859C19.8172 7.11109 19.4813 7.29859 19.2375 7.56421C19.085 7.73062 18.9011 7.86535 18.6965 7.96071C18.4919 8.05607 18.2705 8.1102 18.0449 8.11999C17.8194 8.12978 17.5941 8.09506 17.382 8.01779C17.1698 7.94053 16.975 7.82224 16.8086 7.66968C16.4725 7.36157 16.2726 6.93258 16.2528 6.47707C16.243 6.25153 16.2778 6.02626 16.355 5.81414C16.4323 5.60201 16.5506 5.40718 16.7031 5.24078C16.9485 4.97828 17.1063 4.62671 17.1391 4.26734C17.1617 4.06455 17.1367 3.85929 17.0662 3.66781C16.9957 3.47634 16.8815 3.30392 16.7328 3.16421L15.5875 2.11265Z" fill="#4DAEFF"/>
</g>
</svg>
